<?xml version="1.0" encoding="utf-8"?>
<!-- Generator: Adobe Illustrator 16.0.0, SVG Export Plug-In . SVG Version: 6.00 Build 0)  -->
<!DOCTYPE svg PUBLIC "-//W3C//DTD SVG 1.1//EN" "http://www.w3.org/Graphics/SVG/1.1/DTD/svg11.dtd">
<svg version="1.1" id="Layer_1" xmlns="http://www.w3.org/2000/svg" xmlns:xlink="http://www.w3.org/1999/xlink" x="0px" y="0px"
	 width="500px" height="400px" viewBox="0 0 500 400" enable-background="new 0 0 500 400" xml:space="preserve">
<rect x="0" display="none" width="500" height="400"/>
<g>
	<path fill="#FFFFFF" d="M100.959,299.041c-54.699-54.699-54.698-143.383,0-198.082c54.699-54.699,143.383-54.699,198.082,0
		l42.381-42.38c-78.105-78.105-204.738-78.105-282.843,0c-78.105,78.105-78.105,204.737,0,282.843
		c78.104,78.104,204.737,78.104,282.842-0.001l-42.38-42.38C244.343,353.74,155.657,353.74,100.959,299.041z"/>
	<path opacity="0.5" fill="#FFFFFF" enable-background="new    " d="M200,0C89.543,0,0,89.543,0,200s89.543,200,200,200
		c110.456,0,200-89.543,200-200S310.456,0,200,0z M200,340.064c-77.355,0-140.064-62.709-140.064-140.064
		c0-77.356,62.709-140.065,140.064-140.065c77.354,0,140.064,62.709,140.064,140.065C340.065,277.355,277.355,340.064,200,340.064z"
		/>
	<g>
		<path fill="#FFFFFF" d="M271.685,132.029h-48.878v160.665c0,9.255-2.063,16.117-6.185,20.593
			c-4.125,4.474-9.455,6.713-15.991,6.713c-6.638,0-12.045-2.263-16.217-6.789c-4.176-4.524-6.262-11.362-6.262-20.517V132.029
			h-48.878c-7.645,0-13.328-1.683-17.047-5.054c-3.722-3.368-5.582-7.818-5.582-13.351c0-5.733,1.937-10.259,5.809-13.578
			c3.871-3.319,9.478-4.978,16.82-4.978h142.41c7.744,0,13.502,1.711,17.273,5.129c3.771,3.42,5.657,7.896,5.657,13.427
			c0,5.532-1.912,9.982-5.733,13.351C285.059,130.346,279.327,132.029,271.685,132.029z"/>
		<path fill="#FFFFFF" d="M353.902,120.715l50.084,148.293l50.236-149.349c2.615-7.845,4.576-13.299,5.883-16.368
			c1.307-3.067,3.471-5.832,6.488-8.297c3.016-2.463,7.139-3.696,12.369-3.696c3.821,0,7.366,0.957,10.637,2.866
			c3.266,1.912,5.83,4.45,7.692,7.618c1.859,3.168,2.791,6.362,2.791,9.58c0,2.213-0.303,4.601-0.905,7.166
			c-0.604,2.564-1.357,5.08-2.263,7.543c-0.905,2.465-1.811,5.004-2.715,7.618L440.646,278.21
			c-1.912,5.532-3.824,10.787-5.734,15.765c-1.909,4.979-4.125,9.354-6.637,13.125c-2.516,3.771-5.859,6.864-10.031,9.277
			c-4.176,2.414-9.278,3.621-15.313,3.621c-6.035,0-11.142-1.184-15.313-3.545c-4.174-2.362-7.543-5.48-10.106-9.354
			c-2.564-3.871-4.806-8.271-6.713-13.201c-1.912-4.926-3.824-10.156-5.732-15.688l-52.649-143.314
			c-0.905-2.614-1.837-5.179-2.791-7.694c-0.957-2.513-1.762-5.229-2.414-8.146c-0.655-2.916-0.981-5.379-0.981-7.392
			c0-5.129,2.062-9.806,6.187-14.03c4.122-4.224,9.301-6.336,15.537-6.336c7.643,0,13.05,2.338,16.218,7.015
			C347.34,102.989,350.584,110.456,353.902,120.715z"/>
	</g>
</g>
</svg>
