<?xml version="1.0" encoding="utf-8"?>
<!-- Generator: Adobe Illustrator 16.0.0, SVG Export Plug-In . SVG Version: 6.00 Build 0)  -->
<!DOCTYPE svg PUBLIC "-//W3C//DTD SVG 1.1//EN" "http://www.w3.org/Graphics/SVG/1.1/DTD/svg11.dtd">
<svg version="1.1" id="Layer_1" xmlns="http://www.w3.org/2000/svg" xmlns:xlink="http://www.w3.org/1999/xlink" x="0px" y="0px"
	 width="500px" height="400px" viewBox="0 0 500 400" enable-background="new 0 0 500 400" xml:space="preserve">
<rect x="0" fill="#142864" width="501" height="401"/>
<g>
	<path fill="#E5E5E5" d="M100.959,299.041c-54.699-54.699-54.698-143.383,0-198.082c54.699-54.699,143.383-54.699,198.082,0
		l42.381-42.38c-78.105-78.105-204.738-78.105-282.843,0c-78.105,78.105-78.105,204.737,0,282.843
		c78.104,78.104,204.737,78.104,282.842-0.001l-42.38-42.38C244.343,353.74,155.657,353.74,100.959,299.041z"/>
	<path opacity="0.5" fill="#E5E5E5" enable-background="new    " d="M200,0C89.543,0,0,89.543,0,200s89.543,200,200,200
		s200-89.543,200-200S310.457,0,200,0z M200,340.065c-77.355,0-140.064-62.71-140.064-140.065
		c0-77.356,62.709-140.065,140.064-140.065c77.354,0,140.064,62.709,140.064,140.065C340.065,277.355,277.355,340.065,200,340.065z"
		/>
	<g enable-background="new    ">
		<path fill="#E5E5E5" d="M271.684,132.029h-48.877v160.663c0,9.255-2.063,16.118-6.185,20.593
			c-4.125,4.474-9.455,6.713-15.991,6.713c-6.638,0-12.045-2.263-16.217-6.789c-4.175-4.525-6.261-11.363-6.261-20.517V132.029
			h-48.878c-7.645,0-13.328-1.684-17.047-5.054c-3.722-3.369-5.582-7.819-5.582-13.352c0-5.732,1.936-10.258,5.808-13.577
			c3.871-3.318,9.478-4.979,16.821-4.979h142.409c7.744,0,13.502,1.712,17.273,5.13c3.771,3.42,5.658,7.896,5.658,13.426
			c0,5.532-1.912,9.982-5.732,13.352C285.059,130.346,279.326,132.029,271.684,132.029z"/>
		<path fill="#E5E5E5" d="M353.903,120.715l50.084,148.293l50.236-149.35c2.613-7.845,4.575-13.299,5.883-16.368
			c1.307-3.066,3.471-5.831,6.487-8.297c3.017-2.463,7.14-3.696,12.37-3.696c3.821,0,7.366,0.957,10.636,2.866
			c3.267,1.912,5.831,4.451,7.694,7.619c1.859,3.168,2.79,6.361,2.79,9.579c0,2.214-0.302,4.602-0.905,7.166
			s-1.357,5.079-2.263,7.543c-0.905,2.465-1.81,5.004-2.716,7.618L440.645,278.21c-1.911,5.532-3.822,10.787-5.732,15.765
			c-1.911,4.979-4.125,9.354-6.637,13.125c-2.516,3.771-5.86,6.864-10.033,9.277c-4.174,2.414-9.277,3.621-15.312,3.621
			s-11.14-1.184-15.312-3.545c-4.176-2.362-7.543-5.48-10.107-9.354c-2.565-3.87-4.805-8.271-6.714-13.2
			c-1.911-4.927-3.823-10.157-5.732-15.689l-52.649-143.314c-0.905-2.614-1.836-5.179-2.791-7.694
			c-0.957-2.513-1.761-5.228-2.414-8.146c-0.654-2.915-0.98-5.379-0.98-7.392c0-5.129,2.061-9.806,6.186-14.03
			c4.123-4.224,9.301-6.336,15.538-6.336c7.642,0,13.05,2.339,16.218,7.016C347.34,102.988,350.583,110.456,353.903,120.715z"/>
	</g>
</g>
</svg>
